<svg viewBox="0 0 48 48" xmlns="http://www.w3.org/2000/svg"><style>:root{color-scheme:light dark}path{fill:#161718}@media(prefers-color-scheme:dark){path{fill:#D3CEC1}}</style><path d="M41.58 10.96q1.65 2.58 1.65 6.26 0 5.03-2.45 8.15-1.1 1.31-3.24 2.54a25 25 0 0 0-3.95 2.8 11 11 0 0 0-2.91 4.3q-.21.51-.87 3.63t-1.37 3.97q-2.84 3.05-6.21 3.05a8.2 8.2 0 0 1-5.67-2.41q-.6-.64-.93-1.57t-.46-1.54-.34-2.05q-.21-1.9-1.08-4.35-.86-2.45-1.96-3.3a20 20 0 0 1-5.96-6.38 6 6 0 0 1-.85-2.62l-.12-1.24q-.05-.45-.06-1.5l-.03-1.4v-.46q0-1.57.05-2.41.03-.85.31-2.11a7 7 0 0 1 .87-2.2 16 16 0 0 1 4.52-4.78q3.97-2.74 9.64-2.95l.6-.03.79-.02q5.95 0 7.3.34 3.78.8 7.15 2.92a18.5 18.5 0 0 1 5.58 5.36m-19.4 5.62q-1.22.64-2.36 3.47-.55.98-.55 1.65 0 .34.12.5.3.51.72.51.35 0 1.08-.42.75-.42 1.12-.42.46 0 1.18.44.72.45.98.44.42 0 .63-.88.08-.26.08-.6 0-1.43-.71-3.27-.72-1.84-1.57-1.84-.38 0-.72.42M11.96 14.3q0 1.4 1.1 2.8a5.3 5.3 0 0 0 2.49 1.85q.33.09.55.09 1.35 0 2.56-1.19 1.2-1.18 1.2-2.5 0-.83-.47-1.34-.25-.5-.82-.8t-1.35-.53q-.78-.24-1.08-.36l-.38-.17a3 3 0 0 0-1.23-.26q-1.05 0-1.81.66a2.2 2.2 0 0 0-.76 1.75m15.5 17.12.15.02.15.02q.9 0 1.65-1t.76-2v-.26q-.17-1.73-3.38-2.15-.63-.09-3-.23l-2.58-.15-.93-.09-.9-.02-1.13-.02q-3 0-3.8.8-.46.6-.46 1.53 0 1.43.76 2.2.76.75 2.36 1.39.18-.42.26-1.14.08-.73.1-1.48.03-.76.07-.93a27 27 0 0 1 1.56.04 168 168 0 0 0-.17 3.8h.89q.38-.93.38-2.49a16 16 0 0 0-.04-1.3 48 48 0 0 0 1.98-.05q0 .63-.13 1.92-.12 1.29-.12 1.92.16.09.34.09l.4-.04q.27-.05.44-.05l-.02-1.81-.02-1.82.17-.13q.25-.12.72-.12l.46.02.42.02q0 .63-.06 1.8-.06 1.16-.06 1.79l.5-.02q.25-.02.51-.02 0-.42.13-3.34.46-.04 1.56-.04.09.5.09.88l-.03.79-.02.78q0 .63.05.89m5.33-13.7q1.27-1.26 1.27-2.45 0-1.01-.93-1.66a4.3 4.3 0 0 0-2.5-.66 11 11 0 0 0-2.02.25 4 4 0 0 0-1.23.43q-.34.16-.5.38a2 2 0 0 0-.43 1.22l.02.17.02.17q0 .8 1.06 2.16 1.27 1.47 2.54 1.47 1.21 0 2.7-1.47"/>
</svg>